HIERARCHY
ROOT Hips
{
	OFFSET 0.00000 0.00000 0.00000
	CHANNELS 6 Xposition Yposition Zposition Yrotation Zrotation Xrotation 
	JOINT Lumbar
	{
		OFFSET 0 0 0
		CHANNELS 3 Zrotation Xrotation Yrotation
		JOINT Neck
		{
			OFFSET 0.00 0.2701 0.00
			CHANNELS 3 Zrotation Xrotation Yrotation
			End Site
			{
				OFFSET 0.00 0.1379 0.00
			}
		}
		JOINT RightShoulder
		{
			OFFSET 0.0119 0.2289 0.1181
			CHANNELS 3 Zrotation Xrotation Yrotation
			JOINT RightElbow
			{
				OFFSET 0.00 -0.1475 0.00
				CHANNELS 2 Zrotation Yrotation
				JOINT RightWrist
				{
					OFFSET 0.00 -0.1605 0.00
					CHANNELS 2 Zrotation Xrotation
					End Site
					{
						OFFSET 0.0040 -0.1068 0.0006
					}
				}
			}
		}
		JOINT LeftShoulder
		{
			OFFSET 0.0119 0.2289 -0.1181
			CHANNELS 3 Zrotation Xrotation Yrotation
			JOINT LeftElbow
			{
				OFFSET 0.00 -0.1475 0.00
				CHANNELS 2 Zrotation Yrotation
				JOINT LeftWrist
				{
					OFFSET 0.00 -0.1605 0.00
					CHANNELS 2 Zrotation Xrotation
					End Site
					{
						OFFSET 0.0040 -0.1068 -0.0006
					}
				}
			}
		}
	}
	JOINT RightHip
	{
		OFFSET 0.0316 -0.0424 0.0458
		CHANNELS 3 Zrotation Xrotation Yrotation
		JOINT RightKnee
		{
			OFFSET 0.00 -0.2438 0.00
			CHANNELS 1 Zrotation
			JOINT RightAnkle
			{
				OFFSET 0.00 -0.2449 0.00
				CHANNELS 3 Zrotation Xrotation Yrotation
				End Site
				{
					OFFSET 0.1237 -0.0542 0.0051
				}
			}
		}
	}
	JOINT LeftHip
	{
		OFFSET 0.0316 -0.0424 -0.0458
		CHANNELS 3 Zrotation Xrotation Yrotation
		JOINT LeftKnee
		{
			OFFSET 0.00 -0.2438 0.00
			CHANNELS 1 Zrotation
			JOINT LeftAnkle
			{
				OFFSET 0.00 -0.2449 0.00
				CHANNELS 3 Zrotation Xrotation Yrotation
				End Site
				{
					OFFSET 0.1237 -0.0542 -0.0051
				}
			}
		}
	}
}
MOTION
Frames: 19
Frame Time: 0.02
0.00085 0.00013 0.0005 29.65064 -17.32242 -2.52708 43.67915 -1.10352 -5.30672 -14.79934 2.72258 -0.41651 -20.93683 -6.22085 -12.37843 26.59602 100.07431 10.40575 1.38228 -19.89696 5.1253 13.09586 21.65787 -87.19266 9.3842 1.59224 28.79043 -0.90414 0.38689 -20.30992 -7.36726 -5.44516 -3.54925 33.90129 4.67641 0.77798 -24.27396 -6.72124 2.43674 1.9063
0.00072 0.00011 0.00036 29.79888 -17.36746 -2.60192 43.60044 -1.11379 -5.39727 -14.73417 2.7738 -0.41692 -20.80371 -6.1616 -12.829 26.43414 99.83946 10.22384 1.38049 -20.0028 5.64324 12.65768 22.90667 -91.65745 10.98744 0.95737 28.84337 -0.88718 0.26828 -20.32281 -7.36383 -5.43846 -3.54911 34.01009 4.69504 0.73166 -24.30396 -6.72042 2.42648 1.89897
0.00058 9e-05 0.00023 29.94635 -17.4123 -2.67668 43.52209 -1.12394 -5.48726 -14.66959 2.82518 -0.41733 -20.67132 -6.10262 -13.2782 26.27365 99.6054 10.04264 1.37871 -20.11167 6.16304 12.21665 24.15946 -96.10274 12.58407 0.32537 28.89607 -0.87031 0.14915 -20.33562 -7.36032 -5.43169 -3.54892 34.11844 4.71381 0.68575 -24.33388 -6.7196 2.4163 1.89168
0.00045 7e-05 0.0001 30.09411 -17.45722 -2.75131 43.44366 -1.13418 -5.57751 -14.60466 2.87631 -0.41775 -20.53864 -6.04362 -13.72724 26.11224 99.37108 9.86131 1.37689 -20.21755 6.67984 11.77896 25.40548 -100.55255 14.18208 -0.30734 28.94889 -0.85342 0.03076 -20.34846 -7.35689 -5.42501 -3.54877 34.22695 4.7324 0.63962 -24.36379 -6.71879 2.40608 1.88437
0.00031 5e-05 -4e-05 30.24267 -17.50225 -2.82597 43.36479 -1.14456 -5.66839 -14.53908 2.92713 -0.41816 -20.40519 -5.98418 -14.17804 25.94956 99.1365 9.67926 1.37519 -20.31967 7.19378 11.34619 26.64513 -105.02484 15.78739 -0.94341 29.00184 -0.83638 -0.08677 -20.3614 -7.3536 -5.41842 -3.54872 34.3358 4.7508 0.59297 -24.39377 -6.71798 2.39578 1.87702
0.00018 3e-05 -0.00017 30.3878 -17.54663 -2.90094 43.28753 -1.15421 -5.7565 -14.47665 2.97967 -0.41857 -20.27506 -5.92608 -14.62406 25.79397 98.9039 9.49987 1.3733 -20.44297 7.726 10.88816 27.92571 -109.41364 17.36575 -1.5669 29.05393 -0.81984 -0.20922 -20.37392 -7.34963 -5.41127 -3.54822 34.44297 4.77038 0.54861 -24.42354 -6.71715 2.38585 1.86985
3e-05 1e-05 -0.00031 30.53985 -17.59256 -2.97518 43.20721 -1.16536 -5.85015 -14.40772 3.02876 -0.41898 -20.13824 -5.86573 -15.07815 25.62304 98.66606 9.31523 1.37147 -20.52222 8.22012 10.48008 29.12111 -113.96306 18.99627 -2.21457 29.10805 -0.80241 -0.3217 -20.38727 -7.347 -5.40529 -3.54862 34.55384 4.78747 0.49974 -24.45375 -6.71636 2.37519 1.86233
-0.0001 -1e-05 -0.00044 30.6852 -17.63651 -3.05014 43.12953 -1.17508 -5.93857 -14.34522 3.08094 -0.4194 -20.00787 -5.80678 -15.52673 25.46852 98.4358 9.1356 1.37018 -20.64445 8.7507 10.02846 30.39764 -118.36898 20.57931 -2.84075 29.15966 -0.78565 -0.44326 -20.39985 -7.34318 -5.39818 -3.54818 34.66053 4.80701 0.45492 -24.48347 -6.71555 2.36519 1.85513
-0.00022 -2e-05 -0.00058 30.82367 -17.68025 -3.12584 43.05578 -1.18324 -6.02108 -14.28891 3.13735 -0.41982 -19.88426 -5.75219 -15.96111 25.32516 98.20381 8.96139 1.36721 -20.81052 9.32143 9.51266 31.76503 -122.58196 22.10223 -3.43758 29.21075 -0.77031 -0.57658 -20.41152 -7.33772 -5.38985 -3.54676 34.76518 4.82899 0.41554 -24.5129 -6.71465 2.35604 1.84832
-0.00041 -6e-05 -0.00069 31.00565 -17.73183 -3.19687 42.96157 -1.2009 -6.13905 -14.19198 3.17076 -0.42017 -19.71839 -5.68045 -16.45474 25.09087 97.94873 8.75388 1.36687 -20.69825 9.64794 9.33307 32.58489 -127.85236 23.96478 -4.194 29.27247 -0.7486 -0.64423 -20.42853 -7.34113 -5.38904 -3.55111 34.89077 4.83527 0.34634 -24.54494 -6.71405 2.34212 1.83927
-0.00045 -3e-05 -0.00087 31.09332 -17.76262 -3.27802 42.90915 -1.19818 -6.18129 -14.1839 3.2518 -0.42073 -19.64378 -5.63985 -16.8377 25.06542 97.76347 8.61797 1.36546 -21.18955 10.49773 8.46579 34.57478 -130.92579 25.11488 -4.6197 29.30691 -0.73916 -0.84907 -20.4342 -7.32622 -5.37205 -3.5432 34.96633 4.8757 0.33907 -24.57088 -6.71297 2.33817 1.83494
-9e-05 0.0002 -0.00121 30.93968 -17.77403 -3.38437 42.98577 -1.14198 -6.02247 -14.39519 3.47142 -0.42135 -19.80316 -5.72888 -16.79045 25.48495 97.58286 8.66676 1.32112 -23.20784 12.74168 5.49425 39.68171 -127.61236 24.23949 -4.07681 29.30964 -0.77385 -1.4432 -20.40906 -7.25737 -5.31278 -3.50206 34.95532 5.00122 0.50971 -24.58484 -6.7093 2.36324 1.84408
0.00042 0.00051 -0.00162 30.68779 -17.7598 -3.50097 43.10313 -1.06507 -5.7874 -14.69944 3.73687 -0.42225 -20.05594 -5.84228 -16.65131 26.14158 97.49613 8.7877 1.28093 -25.8471 15.52456 1.85928 45.97604 -122.14633 22.65003 -3.21116 29.27978 -0.8192 -2.17101 -20.37252 -7.17085 -5.23697 -3.44859 34.8875 5.1617 0.73978 -24.5919 -6.70544 2.39837 1.85806
0.00086 0.00078 -0.002 30.46982 -17.72985 -3.61507 43.19063 -0.99576 -5.58146 -14.97815 3.9769 -0.42335 -20.27832 -5.91402 -16.64225 26.7688 97.5024 8.88582 1.26768 -28.29829 18.08086 -1.31359 51.79458 -117.91572 21.4483 -2.53559 29.23306 -0.85251 -2.83146 -20.34096 -7.09478 -5.16718 -3.40043 34.809 5.31305 0.93909 -24.59885 -6.70239 2.4274 1.86926
0.00129 0.00105 -0.00238 30.29816 -17.80626 -3.7217 43.32019 -0.93318 -5.39432 -15.18984 4.23863 -0.42311 -20.45528 -6.10959 -16.27752 27.05092 96.98091 8.94998 1.14164 -30.39082 20.53738 -5.11188 57.36645 -112.64825 20.02647 -1.68429 29.30842 -0.91509 -3.52712 -20.31008 -7.00833 -5.10317 -3.35325 34.87292 5.43984 1.15967 -24.61902 -6.696 2.46148 1.88215
0.00178 0.00136 -0.00278 30.00522 -17.66655 -3.84427 43.37923 -0.85277 -5.1554 -15.55902 4.46322 -0.42567 -20.74238 -6.05973 -16.61 28.12661 97.52476 9.09198 1.24035 -33.33056 23.35886 -7.83237 63.70796 -108.96356 18.83336 -1.11232 29.1363 -0.92065 -4.1723 -20.27526 -6.93949 -5.02383 -3.3014 34.64121 5.62116 1.34335 -24.61059 -6.6969 2.4892 1.89364
0.00255 0.00178 -0.00323 29.4136 -16.83636 -4.02574 43.16622 -0.71853 -4.74467 -16.37381 4.59853 -0.43643 -21.36192 -5.26978 -19.07534 31.17511 101.47773 9.51593 2.05621 -38.86969 26.78379 -6.81061 72.09504 -110.77557 18.98466 -1.48111 28.16334 -0.7544 -4.7238 -20.23066 -6.92215 -4.90052 -3.23687 33.4815 5.9869 1.47006 -24.51991 -6.71446 2.48118 1.89138
0.00335 0.00225 -0.00369 28.70022 -15.80714 -4.21946 42.8909 -0.56866 -4.29259 -17.33639 4.6908 -0.44994 -22.07595 -4.24334 -22.2092 35.04275 106.41428 9.99945 3.08117 -45.1705 30.59451 -4.77856 81.17278 -114.15748 19.30325 -2.1267 26.96521 -0.53302 -5.20753 -20.18282 -6.92337 -4.76304 -3.16839 32.04861 6.39877 1.5483 -24.40167 -6.73989 2.469 1.88899
0.00405 0.00268 -0.00415 28.03572 -14.936 -4.39647 42.69139 -0.43259 -3.89157 -18.21092 4.78602 -0.4618 -22.71761 -3.36114 -24.91781 38.64209 110.57098 10.40069 3.94477 -50.84265 34.42436 -3.62405 89.79962 -116.41056 19.17647 -2.58466 25.95327 -0.34401 -5.66785 -20.13751 -6.91712 -4.63626 -3.10383 30.82453 6.7612 1.60738 -24.29919 -6.76419 2.46942 1.8926
